PathFileType	4	(X/Y/Z)	/Users/itak/Documents/Research/Walk-IL/dataset/trc/00313_00010.trc
DataRate	CameraRate	NumFrames	NumMarkers	Units	OrigDataRate	OrigDataStartFrame	OrigNumFrames
100.000000	100.000000	4	53	mm	100.000000	452	517
Frame#	Time	RPSI			LPSI			L3			STRN			T10			C7			CLAV			RBAK			LBAK			LSHO			LUPA			LAEL			LAOL			LWTS			LWPS			LFRA			LIFD			LHPS			LHTS			RSHO			RUPA			RAEL			RAOL			RWTS			RWPS			RFRA			RIFD			RHTS			RHPS			RBHD			LFHD			RFHD			LBHD			LHIP			RHIP			RASI			LASI			LKNE			LTHI			LANK			LTIP			LTOE			LMT1			LMT5			LHEE			RKNE			RTHI			RANK			RTIP			RTOE			RMT1			RMT5			RHEE			
		X1	Y1	Z1	X2	Y2	Z2	X3	Y3	Z3	X4	Y4	Z4	X5	Y5	Z5	X6	Y6	Z6	X7	Y7	Z7	X8	Y8	Z8	X9	Y9	Z9	X10	Y10	Z10	X11	Y11	Z11	X12	Y12	Z12	X13	Y13	Z13	X14	Y14	Z14	X15	Y15	Z15	X16	Y16	Z16	X17	Y17	Z17	X18	Y18	Z18	X19	Y19	Z19	X20	Y20	Z20	X21	Y21	Z21	X22	Y22	Z22	X23	Y23	Z23	X24	Y24	Z24	X25	Y25	Z25	X26	Y26	Z26	X27	Y27	Z27	X28	Y28	Z28	X29	Y29	Z29	X30	Y30	Z30	X31	Y31	Z31	X32	Y32	Z32	X33	Y33	Z33	X34	Y34	Z34	X35	Y35	Z35	X36	Y36	Z36	X37	Y37	Z37	X38	Y38	Z38	X39	Y39	Z39	X40	Y40	Z40	X41	Y41	Z41	X42	Y42	Z42	X43	Y43	Z43	X44	Y44	Z44	X45	Y45	Z45	X46	Y46	Z46	X47	Y47	Z47	X48	Y48	Z48	X49	Y49	Z49	X50	Y50	Z50	X51	Y51	Z51	X52	Y52	Z52	X53	Y53	Z53	

453	4.52	501.7888488769531	990.6126098632812	747.5477294921875	675.6332397460938	984.7684936523438	761.3184814453125	599.403076171875	1059.121948242188	766.1201171875	597.8378295898438	1255.985595703125	1005.758361816406	610.8868408203125	1171.978515625	743.0664672851562	631.9644165039062	1420.518432617188	772.7237548828125	609.9609375	1349.258911132812	933.7719116210938	558.4873657226562	1280.311157226562	724.2652587890625	737.5757446289062	1378.166137695312	768.7656860351562	780.056884765625	1390.769897460938	862.0740966796875	850.9556884765625	1269.576049804688	869.8216552734375	855.5570068359375	1081.518676757812	951.5924072265625	802.8973388671875	1044.5400390625	892.0703125	777.4280395507812	943.0034790039062	1127.785522460938	839.1021118164062	908.7874755859375	1114.836669921875	851.6017456054688	1000.197937011719	1015.807739257812	755.6033935546875	800.2019653320312	1240.97265625	824.234619140625	841.3013305664062	1170.085693359375	784.5010986328125	878.4530029296875	1207.001708984375	467.5665588378906	1402.84814453125	823.8814086914062	402.3765869140625	1346.427490234375	810.7440795898438	342.5880432128906	1087.975708007812	783.3065795898438	435.9197998046875	1072.024169921875	779.8392333984375	340.2034301757812	855.975830078125	876.9464721679688	280.76171875	864.1884155273438	816.6709594726562	316.2835693359375	1023.319152832031	798.9820556640625	324.7728881835938	671.4595947265625	857.7210083007812	306.224609375	739.34326171875	885.5243530273438	266.548828125	751.171142578125	826.8361206054688	531.4458618164062	1581.32861328125	835.9647827148438	707.7721557617188	1626.594604492188	948.7499389648438	623.7161254882812	1619.176391601562	985.72998046875	667.391845703125	1583.739868164062	782.2789916992188	767.0407104492188	943.6621704101562	840.3307495117188	392.4947204589844	948.2340087890625	846.8133544921875	459.9667053222656	964.78662109375	967.489990234375	710.9893188476562	960.187744140625	974.537109375	731.94287109375	485.6837768554688	928.8309326171875	753.7088623046875	627.2531127929688	917.2876586914062	720.2195434570312	47.95198440551758	819.6455078125	735.0291748046875	258.6298828125	871.96875	637.7982788085938	33.95425415039062	1020.590270996094	607.8314208984375	27.34759712219238	942.8219604492188	719.3582153320312	39.82798385620117	941.1754150390625	665.3035888671875	45.68937301635742	768.1694946289062	412.2938537597656	483.4329833984375	950.0695190429688	386.643798828125	746.1594848632812	928.4952392578125	426.7877807617188	44.27964019775391	861.6070556640625	420.1729736328125	357.8921508789062	956.1922607421875	469.5938720703125	40.58507919311523	1057.826293945312	512.5404052734375	35.59410095214844	1002.122680664062	400.8798217773438	35.70470809936523	963.9793701171875	476.9769897460938	37.79055786132812	810.6500244140625	
454	4.53	499.944580078125	991.7261352539062	750.0228881835938	673.7824096679688	984.9871826171875	763.2391357421875	597.6243286132812	1059.447875976562	768.484130859375	596.6400756835938	1256.496948242188	1007.573791503906	608.8660888671875	1172.382446289062	744.8499145507812	629.637451171875	1420.951782226562	774.3712768554688	608.4002075195312	1349.888916015625	935.6956787109375	556.2467651367188	1280.591186523438	726.3031616210938	735.2872924804688	1378.7939453125	770.0037841796875	778.19873046875	1391.283081054688	863.15625	849.0114135742188	1269.93115234375	870.1040649414062	853.401123046875	1080.826416015625	949.7643432617188	800.0000610351562	1044.88818359375	890.3247680664062	776.4468994140625	938.7763061523438	1124.076904296875	837.7408447265625	904.619384765625	1109.795288085938	849.7788696289062	998.1920776367188	1012.671630859375	754.6417846679688	793.2647705078125	1233.828002929688	822.9347534179688	835.8112182617188	1163.458129882812	783.72607421875	872.1963500976562	1201.676147460938	465.4697265625	1403.097412109375	826.03857421875	400.3125	1346.580444335938	813.1943359375	341.1051025390625	1087.975708007812	785.8312377929688	434.5172729492188	1072.335815429688	782.033935546875	339.9988403320312	856.1700439453125	880.0347900390625	280.2145385742188	863.99365234375	820.1023559570312	315.1192321777344	1023.208312988281	801.745849609375	325.434326171875	671.5299682617188	861.2094116210938	306.6542663574219	739.4130859375	889.1507568359375	266.5150146484375	750.9590454101562	830.5606689453125	529.0813598632812	1581.64990234375	837.9600830078125	705.7793579101562	1627.188598632812	949.9920043945312	621.9092407226562	1619.688354492188	987.3225708007812	664.79052734375	1584.20263671875	783.7161254882812	765.155517578125	943.458740234375	841.9130859375	390.872314453125	949.397216796875	849.5479736328125	458.681640625	965.35595703125	970.0747680664062	709.713623046875	960.0619506835938	976.1412963867188	731.2730102539062	485.6600952148438	931.1533203125	752.7391357421875	627.1807250976562	919.11865234375	719.86767578125	48.30741119384766	819.7425537109375	734.5376586914062	258.7714233398438	873.3380737304688	638.020751953125	33.9185905456543	1020.7978515625	607.8621215820312	27.41031265258789	943.0700073242188	719.3181762695312	39.87934112548828	941.27392578125	664.813720703125	46.22352600097656	768.4369506835938	411.177490234375	483.5520935058594	948.3078002929688	385.1178894042969	746.6961669921875	929.5982666015625	426.5626831054688	44.10699844360352	861.530029296875	419.2016296386719	358.1255493164062	954.6882934570312	469.4600219726562	40.75013732910156	1057.795288085938	512.2819213867188	35.83408737182617	1002.185607910156	400.5609436035156	35.45513916015625	963.9703369140625	476.7966613769531	37.7558479309082	810.6498413085938	
455	4.54	498.1456298828125	992.7772216796875	752.3802490234375	671.9822387695312	985.23779296875	765.1117553710938	595.8900146484375	1059.7626953125	770.77978515625	595.4702758789062	1256.959716796875	1009.343811035156	606.85888671875	1172.764404296875	746.6229858398438	627.3253784179688	1421.368286132812	775.9902954101562	606.8513793945312	1350.489501953125	937.5736694335938	554.02294921875	1280.848876953125	728.2943115234375	733.0211791992188	1379.395629882812	771.2189331054688	776.3545532226562	1391.777099609375	864.214599609375	847.094482421875	1270.281860351562	870.3588256835938	851.2830200195312	1080.123779296875	947.8681030273438	797.1224975585938	1045.256591796875	888.5723876953125	775.6342163085938	934.2738037109375	1120.097534179688	836.4994506835938	900.2529907226562	1104.369995117188	848.0474853515625	996.1013793945312	1009.35498046875	753.9094848632812	785.951416015625	1226.091674804688	821.80078125	830.06640625	1156.282958984375	783.1542358398438	865.57080078125	1195.896362304688	463.4079284667969	1403.322509765625	828.1647338867188	398.273681640625	1346.719970703125	815.620849609375	339.5614624023438	1087.979736328125	788.3279418945312	433.0444641113281	1072.627319335938	784.1546630859375	339.7697448730469	856.4750366210938	883.3248291015625	279.6271057128906	863.8074951171875	823.7013549804688	313.8794860839844	1023.089477539062	804.5233764648438	325.9731140136719	671.6572875976562	865.3181762695312	306.9773254394531	739.6234130859375	893.1813354492188	266.4171447753906	750.790771484375	834.6889038085938	526.7350463867188	1581.93896484375	839.9085083007812	703.78515625	1627.7841796875	951.1947021484375	620.0878295898438	1620.209228515625	988.858154296875	662.213134765625	1584.646362304688	785.1176147460938	763.3187866210938	943.2946166992188	843.471435546875	389.3333435058594	950.485595703125	852.1530151367188	457.4030151367188	965.9025268554688	972.52734375	708.4149169921875	959.9681396484375	977.7151489257812	730.6896362304688	485.6816711425781	933.2691650390625	751.808837890625	627.1461791992188	920.7786865234375	719.428955078125	48.62238693237305	819.8408203125	734.0693359375	258.9664916992188	874.5841064453125	638.3159790039062	33.90305328369141	1021.039672851562	607.8833618164062	27.52943992614746	943.4021606445312	719.284912109375	39.92909240722656	941.3722534179688	664.2122802734375	46.75642395019531	768.7367553710938	410.1083679199219	483.6893920898438	946.5055541992188	383.6447143554688	747.2119140625	930.659912109375	426.3568420410156	43.94544982910156	861.4475708007812	418.3299560546875	358.3549499511719	953.1740112304688	469.3277282714844	40.91864776611328	1057.755737304688	512.0262451171875	36.07205963134766	1002.239135742188	400.2462463378906	35.22164154052734	963.9561157226562	476.6272583007812	37.71103668212891	810.6454467773438	
456	4.55	496.3937072753906	993.7750854492188	754.6224975585938	670.2399291992188	985.5193481445312	766.9375610351562	594.2001342773438	1060.067138671875	773.0028686523438	594.3225708007812	1257.374755859375	1011.071228027344	604.8677978515625	1173.1240234375	748.3816528320312	625.0390014648438	1421.763916015625	777.5814819335938	605.3079833984375	1351.036376953125	939.3826904296875	551.8255004882812	1281.082397460938	730.2339477539062	730.7852172851562	1379.964599609375	772.415771484375	774.53076171875	1392.245361328125	865.2539672851562	845.2034301757812	1270.615234375	870.576904296875	849.22021484375	1079.413330078125	945.9209594726562	794.3060913085938	1045.637084960938	886.8367919921875	774.9918212890625	929.5410766601562	1115.868774414062	835.3815307617188	895.7258911132812	1098.584228515625	846.4212036132812	993.9447021484375	1005.877563476562	753.39794921875	778.3349609375	1217.773803710938	820.8255615234375	824.1273193359375	1148.589233398438	782.7811889648438	858.637939453125	1189.66748046875	461.3843383789062	1403.5205078125	830.2516479492188	396.2610473632812	1346.840087890625	818.008056640625	337.9503173828125	1087.979248046875	790.8209228515625	431.4923095703125	1072.889526367188	786.223388671875	339.5047302246094	856.8695678710938	886.8172607421875	278.9933471679688	863.6241455078125	827.4689331054688	312.5601196289062	1022.961181640625	807.338623046875	326.3808288574219	671.8345336914062	869.9983520507812	307.19580078125	739.9512329101562	897.583984375	266.2625732421875	750.6494140625	839.2079467773438	524.417724609375	1582.20654296875	841.80810546875	701.7977905273438	1628.374145507812	952.3639526367188	618.2571411132812	1620.73193359375	990.3407592773438	659.6683349609375	1585.065795898438	786.4857788085938	761.5422973632812	943.1808471679688	845.008544921875	387.8794555664062	951.4927368164062	854.6189575195312	456.11376953125	966.4276733398438	974.8350219726562	707.0936889648438	959.95556640625	979.2837524414062	730.1766967773438	485.750732421875	935.14404296875	750.9154052734375	627.1550903320312	922.2511596679688	718.8975219726562	48.90420532226562	819.939697265625	733.6071166992188	259.2234497070312	875.6641235351562	638.6839599609375	33.91901397705078	1021.313415527344	607.893310546875	27.70539855957031	943.82763671875	719.25439453125	39.97625350952148	941.4680786132812	663.4786376953125	47.27956771850586	769.0665893554688	409.1282653808594	483.8380126953125	944.70458984375	382.2489318847656	747.6744384765625	931.6851806640625	426.1887817382812	43.80868911743164	861.3675537109375	417.578125	358.5822448730469	951.6614379882812	469.2054748535156	41.06545639038086	1057.718139648438	511.7951049804688	36.28330230712891	1002.280090332031	399.9655456542969	35.02125930786133	963.9368286132812	476.4863891601562	37.66593551635742	810.6392822265625	
